<svg xmlns="http://www.w3.org/2000/svg" xmlns:xlink="http://www.w3.org/1999/xlink" width="20" height="22" viewBox="0 0 20 22">
  <defs>
    <rect id="rect-1" width="20" height="22" x="0" y="0"/>
    <mask id="mask-2" maskContentUnits="userSpaceOnUse" maskUnits="userSpaceOnUse">
      <rect width="20" height="22" x="0" y="0" fill="black"/>
      <use fill="white" xlink:href="#rect-1"/>
    </mask>
  </defs>
  <g>
    <use fill="none" xlink:href="#rect-1"/>
    <g mask="url(#mask-2)">
      <path fill="rgb(255,255,255)" fill-rule="evenodd" d="M19.63598633 2.44438934l-7.79397583 8.57363892 7.79397583 8.57363129c.50720215.55767822.50720215 1.45937347 0 2.0170517-.25289917.2781906-.58486939.4179306-.9168396.4179306-.33197022 0-.66397095-.13974-.9168396-.4179306l-7.79421997-8.57363892-7.79397583 8.57363891c-.25289917.27819062-.58486939.4179306-.9168396.4179306-.33197022 0-.66418457-.13973998-.9168396-.4179306-.50723267-.55767822-.50723267-1.45937347 0-2.0170517l7.79397583-8.57363128L.38043213 2.44438934c-.50723267-.55767822-.50723267-1.45937347 0-2.0170517.506958-.55767822 1.32644653-.55767822 1.8336792 0l7.79397583 8.57363892L17.80230713.42733765c.506958-.55767823 1.32669067-.55767823 1.8336792 0 .50720215.55767822.50720215 1.45937347 0 2.0170517z"/>
    </g>
  </g>
</svg>
