<svg xmlns="http://www.w3.org/2000/svg" xmlns:xlink="http://www.w3.org/1999/xlink" width="59" height="40" viewBox="0 0 59 40">
  <defs>
    <rect id="rect-1" width="59" height="40" x="0" y="0"/>
    <mask id="mask-2" maskContentUnits="userSpaceOnUse" maskUnits="userSpaceOnUse">
      <rect width="59" height="40" x="0" y="0" fill="black"/>
      <use fill="white" xlink:href="#rect-1"/>
    </mask>
  </defs>
  <g>
    <use fill="none" xlink:href="#rect-1"/>
    <g mask="url(#mask-2)">
      <path fill="rgb(255,255,255)" fill-rule="evenodd" d="M7.6825532 32.78297872V4.37106383h33.84591489v23.8612766l6.44857446-3.61106383V2.1855319C47.97704255.97872341 46.53468085 0 44.7546383 0H4.45889362C2.67885106 0 1.23648936.9787234 1.23648936 2.18553191v32.78212766c0 1.20680852 1.4423617 2.18553192 3.22240426 2.18553192H32.5880851l-4.55680851-4.37021277H7.6825532z"/>
      <path fill="rgb(255,255,255)" fill-rule="evenodd" d="M57.25887234 23.49702128c-.59376596-.37957447-1.50638298-.39744681-2.13153191-.04851064l-14.78514894 8.28425532-9.853-4.00765958c-.65402128-.26553191-1.49131915-.18638298-2.0122766.19489362-.51719149.37787234-.57368085.9506383-.13306383 1.37276596l10.67774468 10.24425532c.29876596.2868085.78457447.4587234 1.30176596.46212766h.01506383c.51217021 0 .99546809-.16425532 1.29925532-.44680851l15.81702128-14.61531915c.47702127-.44340426.39542553-1.06042554-.19582979-1.44z"/>
      <path fill="rgb(255,255,255)" fill-rule="evenodd" d="M34.27774468 7.6493617H14.93453191c-1.78004255 0-3.22240425.9787234-3.22240425 2.18553192 0 1.2068085 1.4423617 2.18553191 3.22240425 2.18553191h19.34195745c1.78004255 0 3.22114894-.9787234 3.22114894-2.18553191S36.05778723 7.6493617 34.27774468 7.6493617z"/>
      <path fill="rgb(255,255,255)" fill-rule="evenodd" d="M34.27774468 14.20510638H14.93453191c-1.78004255 0-3.22240425.9787234-3.22240425 2.18553192 0 1.2068085 1.4423617 2.18553191 3.22240425 2.18553191h19.34195745c1.78004255 0 3.22114894-.97787234 3.22114894-2.18553191.00376596-1.20680851-1.43985107-2.18553192-3.21989362-2.18553192z"/>
      <path fill="rgb(255,255,255)" fill-rule="evenodd" d="M34.27774468 20.76170213H14.93453191c-1.78004255 0-3.22240425.9787234-3.22240425 2.18553191s1.4423617 2.18553192 3.22240425 2.18553192h19.34195745c1.78004255 0 3.22114894-.9787234 3.22114894-2.18553192.00376596-1.2068085-1.43985107-2.18553191-3.21989362-2.18553191z"/>
    </g>
  </g>
</svg>
