<svg xmlns="http://www.w3.org/2000/svg" width="54" height="59" viewBox="0 0 54 59">
  <g>
    <path fill="rgb(71,47,146)" fill-rule="evenodd" d="M28.90924072.72009277c2.8137207 2.56188965 15.14056397 4.19665528 22.39074707 4.19665528C52.7911377 4.91674805 54 6.01733398 54 7.375v27.0415039c0 3.31140137-4.13439941 6.17041016-11.44122314 10.9395752C37.4375 48.69567871 29.7000122 53.7451172 29.7000122 56.54138184c0 1.35766601-1.2088623 2.45837402-2.70001221 2.45837402-1.4911499 0-2.7000122-1.100708-2.7000122-2.45837402 0-2.79626465-7.7374878-7.84570313-12.85876466-11.18530274C4.13439941 40.58691406 0 37.72790527 0 34.4165039V7.375c0-1.35766602 1.20880127-2.45825195 2.7000122-2.45825195 7.25018311 0 19.57702637-1.63476563 22.39074708-4.19665528C25.59710693.2590332 26.2838745 0 27 0c.71612549 0 1.40289307.2590332 1.90924072.72009277zm16.11322022 33.6513672c.55889892-.46557618.8772583-1.1234131.87750244-1.81298829v-18.2487793c0-1.2581787-1.04351807-2.31335449-2.41784668-2.44482422-1.98144531-.1895752-3.91802979-.4317627-5.7557373-.7199707-3.989563-.62658691-7.1519165-1.40551758-9.66766358-2.38183594-.6763916-.26245117-1.44110107-.26245117-2.11749268 0-2.51568603.97631836-5.67810058 1.75524903-9.6673584 2.38183594-1.83801269.28979492-3.77459716.5303955-5.75604247.7199707-1.37432862.13146973-2.41778565 1.18664551-2.41784668 2.44482422v18.2487793c.00024414.6895752.31866455 1.3474121.87750244 1.81298828 1.66790771 1.38989258 4.85424804 3.46923828 7.1829834 4.9885254 3.12158203 2.03674316 6.34973144 4.14257812 9.05615234 6.3104248 1.01971436.81677246 2.54699707.81677246 3.56671143 0 2.7064209-2.16784668 5.9345703-4.27368164 9.05780029-6.31164551 2.32672119-1.5180664 5.51342773-3.59741211 7.18133545-4.98730469z"/>
    <path fill="rgb(71,47,146)" fill-rule="evenodd" d="M23.7380625 28.66254479l-6.04125-3.6662745-2.9943 4.0906417 8.1 4.91663665c1.16502077.70741704 2.73069924.48646227 3.60585-.5088719l10.8-12.29159162-4.216725-3.0728979-9.253575 10.53235757z"/>
  </g>
</svg>
