<svg xmlns="http://www.w3.org/2000/svg" xmlns:xlink="http://www.w3.org/1999/xlink" width="42" height="34.001" viewBox="0 0 42 34.001">
  <defs>
    <rect id="rect-1" width="42" height="34.001" x="0" y="0"/>
    <mask id="mask-2" maskContentUnits="userSpaceOnUse" maskUnits="userSpaceOnUse">
      <rect width="42" height="34.001" x="0" y="0" fill="black"/>
      <use fill="white" xlink:href="#rect-1"/>
    </mask>
  </defs>
  <g>
    <use fill="none" xlink:href="#rect-1"/>
    <g mask="url(#mask-2)">
      <path fill="rgb(255,0,0)" fill-rule="evenodd" d="M26.79328918 12.31861547c-.54328918 0-.98360656.35645705-.98360656.79627448v15.0495877c0 .4395061.44031738.79627449.98360656.79627449s.98360656-.3567684.98360656-.79627449v-15.0495877c0-.43981743-.44031738-.79627448-.98360656-.79627448z"/>
      <path fill="rgb(255,0,0)" fill-rule="evenodd" d="M15.1867318 12.31861547c-.54328918 0-.98360655.35645705-.98360655.79627448v15.0495877c0 .4395061.44031737.79627449.98360655.79627449.54328918 0 .98360656-.3567684.98360656-.79627449v-15.0495877c0-.43981743-.44031738-.79627448-.98360656-.79627448z"/>
      <path fill="rgb(255,0,0)" fill-rule="evenodd" d="M6.72766113 10.12234497v19.61849976c0 1.15957641.52526856 2.24856567 1.44274903 3.02990722.91333007.7835083 2.18432617 1.228302 3.51452636 1.23016358h18.61010743c1.3305664-.00186157 2.6015625-.44665528 3.51452636-1.23016358.91748047-.78134155 1.44274903-1.8703308 1.44274903-3.02990722V10.12234497c1.82385254-.39193726 3.0057373-1.8183899 2.76171875-3.33346558C37.76965332 5.27407837 36.1755371 4.14093018 34.288208 4.140625h-5.03588867v-.99533081c.0057373-.83703613-.40307618-1.64077759-1.13500977-2.23205566C27.38537597.3222351 26.39099121-.00683594 25.35705567 0H16.6229248c-1.03393554-.00683594-2.0283203.3222351-2.7602539.91323853-.7319336.59127807-1.14074707 1.39501953-1.13500977 2.23205566V4.140625H7.6916504c-1.88720703.00030518-3.48132324 1.13345337-3.725708 2.6482544-.24401856 1.51507568.9378662 2.94152831 2.76171874 3.33346557zm8.5255127-8.08346558c-.3635254.2926941-.56481934.69177247-.55822754 1.10638428V4.140625h12.59008789v-.99536133c.0065918-.41461181-.19482422-.81399536-.55822754-1.10638428-.36315918-.29269409-.85717773-.4534912-1.36975098-.4463501H16.6229248c-.51257324-.0071411-1.00671386.15365601-1.36975097.4463501zM7.69177246 5.73318481h26.59655762c.9777832 0 1.77050781.64169312 1.77050781 1.43328858 0 .79162598-.7927246 1.43328857-1.77050781 1.43328857H7.69177246c-.97790527 0-1.77050781-.6416626-1.77050781-1.43328857 0-.79159546.79260254-1.43328858 1.77050781-1.43328858zm22.60327149 26.67520142H11.68493652c-1.6817627 0-2.98999023-1.16952515-2.98999023-2.6675415V10.19232178h24.59020996v19.54852295c0 1.49801635-1.3083496 2.6675415-2.9901123 2.6675415z"/>
      <path fill="rgb(255,3,3)" fill-rule="evenodd" d="M20.98999023 12.31860352c-.54333496 0-.98364257.3564453-.98364257.79626464v15.04959107c0 .43951416.44030761.79629516.98364257.79629516.5432129 0 .98352051-.356781.98352051-.79629516V13.11486816c0-.43981933-.44030761-.79626464-.9835205-.79626464z"/>
    </g>
  </g>
</svg>
