<svg xmlns="http://www.w3.org/2000/svg" xmlns:xlink="http://www.w3.org/1999/xlink" width="76" height="64" viewBox="0 0 76 64">
  <defs>
    <rect id="rect-1" width="76" height="64" x="0" y="0"/>
    <mask id="mask-2" maskContentUnits="userSpaceOnUse" maskUnits="userSpaceOnUse">
      <rect width="76" height="64" x="0" y="0" fill="black"/>
      <use fill="white" xlink:href="#rect-1"/>
    </mask>
  </defs>
  <g>
    <use fill="none" xlink:href="#rect-1"/>
    <g mask="url(#mask-2)">
      <path fill="rgb(255,255,255)" fill-rule="evenodd" d="M68.25219727 41.81103516c0-.8815918.84732055-1.59594727 1.89279174-1.59594727 1.0454712 0 1.89279175.71435547 1.89279175 1.59594727v14.17138671c-.0059204 4.40527344-4.23956299 7.97509766-9.46395874 7.97998047H9.46395874C4.23956299 63.95751954.00592041 60.38769531 0 55.98242188V14.39135742c.00592041-4.40527344 4.23956299-7.97509765 9.46395874-7.97998047h16.80593872c1.0454712 0 1.89279175.7150879 1.89279175 1.59594727 0 .8815918-.84732056 1.5961914-1.89279175 1.5961914H9.46395874c-3.13491821.0029297-5.67468262 2.14526368-5.67837524 4.7878418V55.9819336c.00369262 2.64331055 2.54345703 4.7854004 5.67837524 4.7878418h53.10986328c3.13491821-.0024414 5.67468262-2.14453125 5.67837525-4.7878418V41.81103516z"/>
      <path fill="rgb(255,255,255)" fill-rule="evenodd" d="M71.28805542 2.30493164C67.9616394-.5 62.56863403-.5 59.24221802 2.30493164L25.47360229 30.77856445c-.2314453.1953125-.39852905.43725586-.4857788.70263672l-4.44067383 13.5180664c-.18261719.55444337.0029602 1.14794923.48504638 1.55493165.4827881.40649414 1.18667603.56298828 1.84399415.40966797L38.9079895 43.21875c.31497193-.07348633.60183716-.21435547.83328247-.40942383L73.50912476 14.3347168c3.32125854-2.80664063 3.32125854-7.3503418 0-10.15698243l-2.22106934-1.87280273zm-.45544434 9.77294922l-2.00738525 1.69262695-8.9138794-7.51611328 2.0081482-1.6928711c1.84768677-1.55786132 4.84362793-1.55786132 6.6913147 0l2.22180175 1.87304688c1.84472657 1.55981446 1.84472657 4.08398438 0 5.64331055zM29.59780884 31.8161621l27.6369934-23.30419922 8.91314698 7.515625-27.63775635 23.30419922-8.91238403-7.515625zm5.34048462 9.01733398l-7.12088013-6.0048828-2.72903442 8.30615234 9.84991455-2.30126954z"/>
    </g>
  </g>
</svg>
