<svg xmlns="http://www.w3.org/2000/svg" xmlns:xlink="http://www.w3.org/1999/xlink" width="48" height="51" viewBox="0 0 48 51">
  <defs>
    <rect id="rect-1" width="48" height="51" x="0" y="0"/>
    <mask id="mask-2" maskContentUnits="userSpaceOnUse" maskUnits="userSpaceOnUse">
      <rect width="48" height="51" x="0" y="0" fill="black"/>
      <use fill="white" xlink:href="#rect-1"/>
    </mask>
  </defs>
  <g>
    <use fill="none" xlink:href="#rect-1"/>
    <g mask="url(#mask-2)">
      <path fill="rgb(121,82,179)" fill-rule="evenodd" d="M43.78125 6.07617188H4.21875C1.89544678 6.07617188 0 8.08789061 0 10.55859374v29.8828125c0 2.4623413 1.88702393 4.48242188 4.21875 4.48242188h39.5625c2.31750488 0 4.21875-2.00494385 4.21875-4.48242188v-29.8828125c0-2.4623413-1.88702393-4.48242188-4.21875-4.48242188zm-.58258057 2.98828124L24.0894165 29.36813354 4.81488037 9.06445313h38.38378906zM2.8125 11.16311646v28.65951538l13.54492188-14.3914795L2.8125 11.16311646zM31.7074585 25.5L45.1875 39.82254028V11.17736816L31.7074585 25.5zm-26.90625 16.43554688l13.5534668-14.4005127 4.74908447 5.002594c.54974365.57913207 1.43688964.57720947 1.984375-.00460816L29.71875 27.61303711l13.4800415 14.32250976H4.8012085z"/>
    </g>
  </g>
</svg>
