<svg xmlns="http://www.w3.org/2000/svg" width="41" height="49" viewBox="0 0 41 49">
  <g>
    <path fill="rgb(71,47,146)" fill-rule="evenodd" d="M5.125 49h30.75C38.6994629 49 41 46.9399414 41 44.40625v-21.4375c0-2.5336914-2.3005371-4.59375-5.125-4.59375H5.125C2.3005371 18.375 0 20.4350586 0 22.96875v21.4375C0 46.9399414 2.3005371 49 5.125 49zM3.41668701 22.96875c0-.84521484.76763916-1.53125 1.70831299-1.53125h30.75c.94073486 0 1.70837402.68603516 1.70837402 1.53125v21.4375c0 .84521484-.76763916 1.53125-1.70837402 1.53125H5.125c-.94067383 0-1.70831299-.68603516-1.70831299-1.53125v-21.4375z"/>
    <path fill="rgb(71,47,146)" fill-rule="evenodd" d="M32.45833333 21.4375c-.943 0-1.70833333-.686-1.70833333-1.53125V12.25c0-5.065375-4.59883333-9.1875-10.25-9.1875S10.25 7.184625 10.25 12.25v7.65625c0 .84525-.76533333 1.53125-1.70833333 1.53125-.943 0-1.70833334-.686-1.70833334-1.53125V12.25C6.83333333 5.494125 12.96283333 0 20.5 0c7.53716667 0 13.66666667 5.494125 13.66666667 12.25v7.65625c0 .84525-.76533334 1.53125-1.70833334 1.53125z"/>
    <path fill="rgb(71,47,146)" fill-rule="evenodd" d="M15.944458 30.625c0 2.25195313 2.04315186 4.08325195 4.555542 4.08325195S25.055542 32.87695313 25.055542 30.625c0-2.25195313-2.04315186-4.08337402-4.555542-4.08337402S15.944458 28.37304688 15.944458 30.625zm3.41662598 0c0-.56359863.51251221-1.02087402 1.13891602-1.02087402.62634277 0 1.13885498.45727539 1.13885498 1.02087402 0 .56347656-.5125122 1.02075195-1.13885498 1.02075195-.6264038 0-1.13891602-.45727539-1.13891602-1.02075195z"/>
    <path fill="rgb(71,47,146)" fill-rule="evenodd" d="M20.5 40.83333333c-.943 0-1.70833333-.686-1.70833333-1.53125V33.6875c0-.84525.76533333-1.53125 1.70833333-1.53125.943 0 1.70833333.686 1.70833333 1.53125v5.61458333c0 .84525-.76533333 1.53125-1.70833333 1.53125z"/>
  </g>
</svg>
