<svg xmlns="http://www.w3.org/2000/svg" width="34" height="27" viewBox="0 0 34 27">
  <path fill="rgb(255,255,255)" fill-rule="evenodd" d="M2.6854248 14.13179207c-1.100708-.0360012-2.17175292-.6086483-2.54992675-1.48280907-.46325684-1.1520462.2960205-2.39296913 1.74523925-2.76760864l3.43676758-.90341187-1.19140625-2.83286094c-.46325683-1.1520443.29614258-2.39296913 1.74523926-2.76760865 1.44921875-.37351608 3.0189209.2340088 3.49060059 1.38042832l1.19140625 2.83286285 7.08874511-1.87994957-1.19140625-2.83286285c-.46313476-1.1520443.29614258-2.39296913 1.74536133-2.76760864 1.44921875-.37463951 3.01879883.23400879 3.49060059 1.37930488l1.19128418 2.83286095 3.44665527-.9112854c1.44921875-.37463951 3.0189209.23400879 3.49060059 1.37930488.46325683 1.1520443-.29602051 2.39296914-1.74523926 2.76760865l-3.4453125.91016197 2.29919433 5.4249649 3.4453125-.91016197c1.44909668-.3746395 3.01879883.2340088 3.49047852 1.37930489l.00146484.00112533c.4716797 1.14416886-.29467773 2.39297104-1.7368164 2.75410843l-3.44519043.91016007 1.19140625 2.83286285c.46313476 1.15204239-.29614258 2.39297104-1.74536133 2.76760864-1.616333.3678894-3.0415039-.3611412-3.49047852-1.37930679l-1.19140625-2.83285904-7.10302734 1.88669968 1.19140625 2.83286285c.46325684 1.1520462-.2960205 2.39296723-1.74523926 2.76760864-1.61645507.3678894-3.0415039-.36113739-3.49060058-1.37930297l-1.19140625-2.83286286c-.71606446.1892662-1.30114746.34617615-1.7833252.47549057-1.85375976.4971428-2.18652344.58638764-2.59680176.53817368-1.100708-.03600312-2.17175293-.60865021-2.54992675-1.48281098-.46325684-1.1464157.30310058-2.39296722 1.74523925-2.76760864l3.44519043-.91016006-2.29919433-5.4249649c-.71813965.18955611-1.30444336.34662437-1.78735352.475996-1.85021972.49564362-2.18273926.58472253-2.59277344.5365448zm18.98413086 1.19254875l-2.29919433-5.43734169-7.0958252 1.88782501 2.29919434 5.43621254 7.0958252-1.88669586z"/>
</svg>
