<svg xmlns="http://www.w3.org/2000/svg" xmlns:xlink="http://www.w3.org/1999/xlink" width="60" height="50" viewBox="0 0 60 50">
  <defs>
    <path id="path-1" fill-rule="evenodd" d="M28.7684021 39.41625977c.24501038.20214843.56500244.30419921.88500977.30419921.29501342 0 .59501647-.08752441.83001709-.26452636l13.46766662-10.0213623c9.87263489-7.02954102 16.3177185-18.44677735 16.04020691-28.41394044C59.9763031.46435547 59.43879699.0164795 58.77128601.00390625c-11.95265198-.16870117-25.6603241 5.14196777-34.07792663 13.34863281L12.6506958 24.59472656c-.44000244.41247559-.41999817 1.03967285.05000305 1.43127442L28.7684021 39.41625977zm.93252563-2.16882325L15.30323792 25.24890137l11.27264404-10.5255127c7.690094-7.49609375 19.96775818-12.48596191 30.9203949-12.63806152-.18499756 9.12756348-6.1725769 19.36132812-15.18769837 25.7824707l-12.60765076 9.37963867z"/>
    <mask id="mask-2" x="0" y="0" maskContentUnits="userSpaceOnUse" maskUnits="userSpaceOnUse">
      <rect width="60" height="50" x="0" y="0" fill="black"/>
      <use fill="white" xlink:href="#path-1"/>
    </mask>
    <path id="path-3" fill-rule="evenodd" d="M34.44097978 47.3459008c-.12000153 0-.2425031-.01458405-.35750457-.04583557-.45000577-.12500606-.8200105-.41252002-.88501134-.8042057l-1.71502197-9.97340077c-.09750124-.5687776.37750484-1.09588653 1.06001358-1.1792239.68250874-.08958769 1.31501684.31251516 1.41501812.8833762l1.34001717 7.7920449c4.3800561-4.3647952 6.81508728-9.89839714 6.81508728-15.54033766 0-.57502791.56000718-1.04171723 1.25001601-1.04171723.69000884 0 1.25001601.46668932 1.25001601 1.04171723 0 6.90241837-3.35504297 13.65899634-9.2051179 18.53214954-.2500032.20834345-.61500787.33543295-.96751239.33543295z"/>
    <mask id="mask-4" x="0" y="0" maskContentUnits="userSpaceOnUse" maskUnits="userSpaceOnUse">
      <rect width="60" height="50" x="0" y="0" fill="black"/>
      <use fill="white" xlink:href="#path-3"/>
    </mask>
    <path id="path-5" fill-rule="evenodd" d="M16.35324812 23.77392328c-.05750074 0-.1175015-.00208343-.17750227-.01041717L4.20809256 22.33427007c-.47000602-.05625273-.86251104-.32918265-1.01001293-.70628429-.1475019-.3750182-.02750035-.78962166.31000397-1.06671844 5.93257598-4.94398998 14.0376798-7.73995903 22.32028587-7.73995903.69000884 0 1.25001601.46668932 1.25001601 1.04171723s-.56000717 1.04171723-1.250016 1.04171723c-6.80258713 0-13.47767263 2.04801608-18.660239 5.67735891l9.36261991 1.11880431c.68250874.08333738 1.15751483.60836286 1.06001358 1.1792239-.09250119.51877519-.62750804.8937934-1.23751585.8937934z"/>
    <mask id="mask-6" x="0" y="0" maskContentUnits="userSpaceOnUse" maskUnits="userSpaceOnUse">
      <rect width="60" height="50" x="0" y="0" fill="black"/>
      <use fill="white" xlink:href="#path-5"/>
    </mask>
    <path id="path-7" fill-rule="evenodd" d="M38.41352844 17.98815918c1.21751404 1.01464844 2.8175354 1.52307129 4.4200592 1.52307129 1.60002137 0 3.20004273-.50634766 4.42005921-1.52307129 2.43502808-2.03125 2.43502808-5.33557129 0-7.36694336-2.43753052-2.03137207-6.40258789-2.03137207-8.8401184 0-2.43502808 2.03137207-2.43502808 5.33569336 0 7.36694336zm1.76753235-5.8939209c.73001099-.60839844 1.69252014-.91259766 2.65252686-.91259766.96002197 0 1.92002868.30627442 2.65254211.91259766 1.46000671 1.21875 1.46000671 3.20214844 0 4.4210205-1.46252441 1.21459962-3.84255981 1.21667481-5.30506897 0-1.46002197-1.21887206-1.46002197-3.2022705 0-4.4210205z"/>
    <mask id="mask-8" x="0" y="0" maskContentUnits="userSpaceOnUse" maskUnits="userSpaceOnUse">
      <rect width="60" height="50" x="0" y="0" fill="black"/>
      <use fill="white" xlink:href="#path-7"/>
    </mask>
    <path id="path-9" fill-rule="evenodd" d="M.36553955 49.69592285c.2400055.19799805.55751038.30419922.88500977.30419922.11999511 0 .24000549-.01452637.3600006-.04162598 1.3675232-.3416748 13.4526825-3.40222168 16.12771607-5.6315918 3.01252747-2.51049804 3.01252747-6.59606933 0-9.10668945-3.01254272-2.51257324-7.9151001-2.51049804-10.92764282 0C4.1355896 37.44958496.4630432 47.52087402.05303955 48.66052246c-.13250732.36669922-.0125122.76464844.3125 1.0354004zm8.2126007-13.00476074c1.02001954-.8479004 2.3575287-1.27294922 3.69755555-1.27294922 1.33750916 0 2.67503357.42504883 3.6925354 1.27294922 2.03753662 1.69799805 2.03753662 4.46276855 0 6.1607666C14.52572632 44.05407715 8.07063293 46.05419921 3.15057373 47.375c1.58502197-4.10229492 3.98504639-9.47961426 5.42756653-10.6838379z"/>
    <mask id="mask-10" x="0" y="0" maskContentUnits="userSpaceOnUse" maskUnits="userSpaceOnUse">
      <rect width="60" height="50" x="0" y="0" fill="black"/>
      <use fill="white" xlink:href="#path-9"/>
    </mask>
  </defs>
  <g>
    <g>
      <use fill="rgb(70,46,144)" xlink:href="#path-1"/>
      <use fill-opacity="0" stroke="rgb(71,47,146)" stroke-linecap="butt" stroke-linejoin="miter" stroke-width="6" mask="url(#mask-2)" xlink:href="#path-1"/>
    </g>
    <g>
      <use fill="rgb(71,47,146)" xlink:href="#path-3"/>
      <use fill-opacity="0" stroke="rgb(71,47,146)" stroke-linecap="butt" stroke-linejoin="miter" stroke-width="6" mask="url(#mask-4)" xlink:href="#path-3"/>
    </g>
    <g>
      <use fill="rgb(71,47,146)" xlink:href="#path-5"/>
      <use fill-opacity="0" stroke="rgb(71,47,146)" stroke-linecap="butt" stroke-linejoin="miter" stroke-width="6" mask="url(#mask-6)" xlink:href="#path-5"/>
    </g>
    <g>
      <use fill="rgb(71,47,146)" xlink:href="#path-7"/>
      <use fill-opacity="0" stroke="rgb(71,47,146)" stroke-linecap="butt" stroke-linejoin="miter" stroke-width="6" mask="url(#mask-8)" xlink:href="#path-7"/>
    </g>
    <g>
      <use fill="rgb(71,47,146)" xlink:href="#path-9"/>
      <use fill-opacity="0" stroke="rgb(71,47,146)" stroke-linecap="butt" stroke-linejoin="miter" stroke-width="6" mask="url(#mask-10)" xlink:href="#path-9"/>
    </g>
  </g>
</svg>
