<svg xmlns="http://www.w3.org/2000/svg" width="89" height="82" viewBox="0 0 89 82">
  <g>
    <path fill="rgb(33,122,253)" fill-rule="evenodd" d="M8 0h73c4.4153202 0 8 3.5846798 8 8v66c0 4.4153202-3.5846798 8-8 8H8c-4.4153202 0-8-3.5846798-8-8V8c0-4.4153202 3.5846798-8 8-8z"/>
    <g>
      <path fill="rgb(255,255,255)" fill-rule="evenodd" d="M69.49131775 37.61132813l4.7431488 1.11914062C77.04049683 39.39257813 79.00012207 41.76025391 79 44.48852539v8.21704102c0 2.72802734-1.95965576 5.09570312-4.76553345 5.7578125l-4.8079834 1.13452148c-.2628479 1.11035156-1.3142395 1.94335938-2.569458 1.94335938h-.4030304v5.96166992C66.45399475 71.63671875 62.88827515 75 58.5052948 75H40.3006134c-2.28248596 0-4.13928222-1.7512207-4.13928222-3.90405273V67.8173828c0-1.92016601 1.65623474-3.48242187 3.69216919-3.48242187h5.16667175c2.03593445 0 3.69215393 1.56225586 3.69215393 3.48242187v1.75683594h3.90837097c.55845642 0 1.01095581.42675781 1.01095581.95336914 0 .52661133-.45249939.95361328-1.0109558.95361328h-4.68141175c-.68867493 0-1.24887085-.52832031-1.24887085-1.17797851V67.8173828c0-.8684082-.74932861-1.57519531-1.67024231-1.57519531h-5.16667175c-.9209137 0-1.67024231.7067871-1.67024231 1.57519531v3.27832032c0 1.10107421.94989013 1.9970703 2.11735534 1.9970703h18.20481873c2.73321533 0 5.03901672-1.75463866 5.72094726-4.13208007h-1.80085754c-.6210022 1.47460937-2.14781189 2.52026367-3.92967224 2.52026367h-1.5665741c-.55845642 0-1.01097107-.42700195-1.01097107-.95361328 0-.52661133.45251465-.95336914 1.01097107-.95336914h1.5665741c1.21612549 0 2.20550537-.93334961 2.20550537-2.08032227v-6.12915039c-1.63734436-.48828125-2.82785034-1.93432617-2.82785034-3.63793945V39.53466797c0-2.10327149 1.81420898-3.81445313 4.04411316-3.81445313h1.0065155v-4.56787109c0-3.71411133-1.4258728-7.2980957-4.01486206-10.09179688-.36758423-.39672851-.32458496-.99902343.09584045-1.34570312.42028809-.34643555 1.05908204-.3059082 1.4263916.09057617 1.10882569 1.1965332 2.02731324 2.5222168 2.74037171 3.93554688h2.9068451c-2.91412354-6.92504883-10.08815003-11.83422852-18.45526124-11.83422852h-6.24665832c-8.36709595 0-15.5411377 4.90942383-18.45526123 11.83422852h2.9088745c2.94458009-5.81274414 9.2392273-9.8383789 16.51260377-9.8383789h4.31396484c3.72369385 0 7.30789185 1.05029296 10.36515808 3.03710937.45965576.29907226.57571411.89282226.25880432 1.32641601-.31703186.43334961-.94625854.54296875-1.4061737.24414063-2.71826172-1.7668457-5.90574646-2.7006836-9.2177887-2.7006836h-4.31396484c-8.96963501 0-16.26701355 6.88305664-16.26701355 15.34301758v4.5678711h1.0065155c2.22990418 0 4.0440979 1.71118164 4.0440979 3.81445312v18.19189453c0 2.10327149-1.81419372 3.81445313-4.0440979 3.81445313h-4.93954468c-1.2552185 0-2.30647277-.83325196-2.569458-1.94360352l-4.8079834-1.13427734C11.9596405 57.80126953 10 55.43359375 10 52.70532227v-8.21679688c0-2.72827148 1.9596405-5.09594726 4.76553345-5.75805664l4.7431488-1.11914063v-6.9855957C19.50868225 19.25268555 29.31861877 10 41.37667847 10h6.24664306c12.05804444 0 21.86799622 9.25268555 21.86799622 20.62573242v6.9855957zM25.00897217 25.64819336c-.39414978 1.10131836-.67250061 2.25219726-.82333374 3.43969726h-2.58764649c.10231018-1.1809082.32148743-2.3305664.64620972-3.43969726h2.7647705zm42.39303589 3.43969726c-.10231018-1.1809082-.32148743-2.3305664-.64620972-3.43969726h-2.76652527c.39723206 1.1130371.67437744 2.26513672.82426453 3.43969726h2.58847046zm.0675354 29.96850586c0 .31835938-.27471924.57763672-.61251831.57763672h-4.93954468c-1.11502075 0-2.02218628-.85571289-2.02218628-1.90722656V39.53491211c0-1.05175781.9070282-1.9074707 2.02218628-1.9074707h1.50727844c.83882141 0 1.52114868-.6435547 1.52114868-1.43481446v-5.0402832c0-.05249023-.00134277-.10498047-.00187683-.15771484h2.5255127v28.06176757zM29.1047058 39.53491211c0-1.05175781-.90718079-1.9074707-2.02220154-1.9074707l-1.50726318.00024414c-.83883667 0-1.52116394-.6435547-1.52116394-1.43481446v-5.0402832c0-.05273437.00161743-.10498047.00216675-.15771484h-2.52565003v17.71020508c0 .52661132-.45251465.95361328-1.0109558.95361328-.55845643 0-1.01097108-.42700196-1.01097108-.95361329v-9.12768554l-4.25236511 1.00341797c-1.90437317.44921875-3.23439026 2.05639648-3.23439026 3.90771484v8.21704102c0 1.8515625 1.3300171 3.45825195 3.23439026 3.90771484l4.25236511 1.00341797v-4.84814453c0-.52661133.45251465-.95361328 1.01097107-.95361328.55844116 0 1.01095581.42700195 1.01095581.95361328v6.2878418c0 .31860351.27470398.57763671.61250305.57763671h4.93940735c1.11515808 0 2.02220154-.85546875 2.02220154-1.90722656V39.53491211zM73.7438202 56.61352539c1.90437317-.44946289 3.23439026-2.05639648 3.23439026-3.90795898v-8.21704102c0-1.85131836-1.3300171-3.4584961-3.23439026-3.90771484l-4.25236511-1.00341797v18.03930664l4.25236511-1.00317383zM62.7230072 63.17749023h1.70892334v-1.63623046H62.7230072v1.63623046zm1.70892334 3.87646485H62.7230072v-1.96948242h1.70892334v1.96948242z"/>
      <path fill="rgb(255,255,255)" fill-rule="evenodd" d="M51.31723494 55.34731332c.18075954.12599337.39130867.18676514.60010548.18676514.30975794 0 .61547205-.1338759.81375488-.38675259.33186426-.42349535.23696888-1.02053354-.21203187-1.33354632-5.59788415-3.90261588-13.12050013-3.90274302-18.71865387 0-.44900075.31301278-.54389613.91005097-.21203187 1.33354632.33199905.4236225.9649944.51312737 1.41386036.19998745 4.87902465-3.40156658 11.43529827-3.40169372 16.3149969 0z"/>
      <path fill="rgb(255,255,255)" fill-rule="evenodd" d="M37.40576022 58.41450801c3.44144044-2.39934085 8.06624252-2.39934085 11.50768296 0 .44886596.31301278 1.0821309.22350791 1.41386036-.19998745.33186426-.42349536.23696887-1.02053354-.21203188-1.33354632-4.16043474-2.9005173-9.75090518-2.9005173-13.91133992 0-.44900075.31301278-.54389614.91005096-.21203188 1.33354632.19828283.25300383.50399694.3867526.81375488.3867526.20879681 0 .41948074-.06077178.60010548-.18676515z"/>
      <path fill="rgb(255,255,255)" fill-rule="evenodd" d="M38.6074539 59.94816893c-.44900074.31301278-.54389613.91005096-.21203187 1.33354632.33199905.4236225.9649944.51312737 1.41386036.19998745 2.00426063-1.39698799 4.69691717-1.39686085 6.70063862 0 .18075953.12599337.39130867.18676514.60010547.18676514.30975795 0 .61547206-.1338759.81375489-.38675259.33186426-.42349536.23696887-1.02053354-.21203188-1.33354632-2.72271574-1.89829156-6.38144505-1.89816443-9.10429558 0z"/>
    </g>
  </g>
</svg>
