<svg xmlns="http://www.w3.org/2000/svg" xmlns:xlink="http://www.w3.org/1999/xlink" width="279" height="285" viewBox="0 0 279 285">
  <defs>
    <rect id="rect-1" width="279" height="285" x="0" y="0"/>
    <mask id="mask-2" maskContentUnits="userSpaceOnUse" maskUnits="userSpaceOnUse">
      <rect width="279" height="285" x="0" y="0" fill="black"/>
      <use fill="white" xlink:href="#rect-1"/>
    </mask>
    <rect id="rect-4" width="175" height="161" x="49" y="67"/>
    <mask id="mask-5" maskContentUnits="userSpaceOnUse" maskUnits="userSpaceOnUse">
      <rect width="279" height="285" x="0" y="0" fill="black"/>
      <use fill="white" xlink:href="#rect-4"/>
    </mask>
  </defs>
  <g>
    <g>
      <use fill="none" xlink:href="#rect-1"/>
      <g mask="url(#mask-2)">
        <path fill="rgb(71,47,146)" fill-rule="evenodd" d="M0 142.5C0 64.0415039 62.68237305 0 139.5 0 216.3067627 0 279 64.03036499 279 142.5c0 78.4584961-62.68237305 142.5-139.5 142.5C62.6932373 285 0 220.9696045 0 142.5zm16.34765625 0c0 69.36688232 55.24578857 125.80078125 123.15234375 125.80078125 67.90649414 0 123.15234375-56.43389893 123.15234375-125.80078125S207.40649415 16.69921875 139.5 16.69921875c-67.90655518 0-123.15234375 56.43389893-123.15234375 125.80078125z"/>
      </g>
    </g>
    <g>
      <use fill="none" xlink:href="#rect-4"/>
      <g mask="url(#mask-5)">
        <path fill="rgb(71,47,146)" fill-rule="evenodd" d="M157.2556081 96.9533496c8.95360904 0 16.27918512-6.73952999 16.27918512-14.97685031C173.53479322 73.73952999 166.20921714 67 157.2556081 67c-8.95360905 0-16.27918512 6.73952999-16.27918512 14.9768503 0 8.23732033 7.32595761 14.9764993 16.27918512 14.9764993z"/>
        <path fill="rgb(71,47,146)" fill-rule="evenodd" d="M202.02327179 153.11609948v-14.9768503c-15.05825578 0-28.08137495-7.48824965-35.40695102-18.3466153l-7.7326797-11.98091863c-2.84896232-4.49301999-8.13940179-7.11406532-13.83732642-7.11406532-2.03475507 0-4.06989167.37453534-6.10464673 1.123255l-42.73252708 16.1001053v35.19544027h16.27918511V128.0303052l14.24404852-5.24173965-12.61639708 60.28123453-39.88356477-7.11406532-3.2556844 14.60231497s56.9765756 10.10929498 56.9765756 10.48383032l7.7326797-32.94893027 17.50011446 14.9768503V228h16.27918511v-56.53728522l-16.68628874-15.35103463 4.88371738-22.46509995c10.58126048 11.98126963 26.45334196 19.46951928 44.36056006 19.46951928z"/>
      </g>
    </g>
  </g>
</svg>
