<svg xmlns="http://www.w3.org/2000/svg" xmlns:xlink="http://www.w3.org/1999/xlink" width="28" height="28" viewBox="0 0 28 28">
  <defs>
    <rect id="rect-1" width="28" height="28" x="0" y="0"/>
    <mask id="mask-2" maskContentUnits="userSpaceOnUse" maskUnits="userSpaceOnUse">
      <rect width="28" height="28" x="0" y="0" fill="black"/>
      <use fill="white" xlink:href="#rect-1"/>
    </mask>
  </defs>
  <g>
    <use fill="none" xlink:href="#rect-1"/>
    <g mask="url(#mask-2)">
      <path fill="rgb(255,255,255)" fill-rule="evenodd" d="M28 5.31825c-1.04125.45675-2.15075.7595-3.3075.9065 1.19-.7105 2.09825-1.827 2.52525-3.17275-1.1095.6615-2.3345 1.12875-3.64 1.3895-1.0535-1.12175-2.555-1.8165-4.193-1.8165-3.178 0-5.7365 2.5795-5.7365 5.74175 0 .455.0385.8925.133 1.309C9.009 9.443 4.78625 7.15575 1.9495 3.6715c-.49525.85925-.78575 1.84275-.78575 2.9015 0 1.988 1.02375 3.75025 2.54975 4.7705-.92225-.0175-1.827-.28525-2.5935-.707v.063c0 2.7895 1.98975 5.1065 4.599 5.64025-.46725.12775-.9765.189-1.505.189-.3675 0-.7385-.021-1.08675-.098C3.871 18.704 5.9815 20.37525 8.491 20.4295c-1.953 1.52775-4.43275 2.44825-7.11725 2.44825-.47075 0-.92225-.021-1.37375-.07875 2.54275 1.63975 5.55625 2.576 8.806 2.576 10.563 0 16.338-8.75 16.338-16.3345 0-.25375-.00875-.49875-.021-.742C26.26225 7.49 27.2195 6.48025 28 5.31825z"/>
    </g>
  </g>
</svg>
