<svg xmlns="http://www.w3.org/2000/svg" xmlns:xlink="http://www.w3.org/1999/xlink" width="82" height="74" viewBox="0 0 82 74">
  <defs>
    <rect id="rect-1" width="82" height="74" x="0" y="0"/>
    <mask id="mask-2" maskContentUnits="userSpaceOnUse" maskUnits="userSpaceOnUse">
      <rect width="82" height="74" x="0" y="0" fill="black"/>
      <use fill="white" xlink:href="#rect-1"/>
    </mask>
  </defs>
  <g>
    <use fill="none" xlink:href="#rect-1"/>
    <g mask="url(#mask-2)">
      <path fill="rgb(71,47,146)" fill-rule="evenodd" d="M73.08685116 0H33.86959791C28.9567874 0 24.9566162 3.6099106 24.9566162 8.04342252v19.30433472c0 .8879994.79866386 1.60874483 1.78266319 1.60874483.98399933 0 1.78266319-.72074544 1.78266319-1.60874483V8.04342252c0-2.66083107 2.39933397-4.82608367 5.34782245-4.82608367H73.0871854c2.94848849 0 5.34782246 2.1652526 5.34782246 4.82608367v57.91300414c0 2.66083107-2.39933397 4.82608368-5.34782246 4.82608368H33.86959791c-2.94848848 0-5.34782245-2.1652526-5.34782245-4.82608368V46.65209195c0-.8879994-.79866386-1.60874483-1.78266319-1.60874483-.98399933 0-1.7826632.72074543-1.7826632 1.60874483v19.30433471c0 4.43351193 4.0001712 8.04342252 8.91298173 8.04342252h39.21742036c4.91281053 0 8.91298172-3.60991059 8.91298172-8.04342252V8.04342252C82 3.6099106 77.9998288 0 73.08685116 0z"/>
      <path fill="rgb(71,47,146)" fill-rule="evenodd" d="M58.826047 35.39133058H1.7826632C.79866385 35.39133058 0 36.1119252 0 36.99992459c0 .8879994.79866386 1.60874483 1.7826632 1.60874483H58.826047c.98399932 0 1.78266318-.72074543 1.78266318-1.60874483s-.79866386-1.60859401-1.78266319-1.60859401z"/>
      <path fill="rgb(71,47,146)" fill-rule="evenodd" d="M60.08462358 35.8674539l-10.6956449-9.65216736c-.69521692-.62739088-1.82544577-.62739088-2.5206627 0-.69521691.62739088-.69521691 1.6473535 0 2.27474438l9.43355881 8.5132116-9.4335588 8.51321161c-.69521692.62739088-.69521692 1.6473535 0 2.27474438.34944677.31203647.80568287.46978908 1.2620861.46978908.45640322 0 .91263932-.1576018 1.25857659-.46647115l10.6956449-9.65216735c.69521692-.6275417.69521692-1.64750432 0-2.2748952z"/>
    </g>
  </g>
</svg>
