<svg xmlns="http://www.w3.org/2000/svg" xmlns:xlink="http://www.w3.org/1999/xlink" width="86" height="78" viewBox="0 0 86 78">
  <defs>
    <rect id="rect-2" width="50" height="62" x="20" y="10"/>
    <mask id="mask-3" maskContentUnits="userSpaceOnUse" maskUnits="userSpaceOnUse">
      <rect width="86" height="78" x="0" y="0" fill="black"/>
      <use fill="white" xlink:href="#rect-2"/>
    </mask>
  </defs>
  <g>
    <path fill="rgb(156,29,231)" fill-rule="evenodd" d="M8 0h70c4.4153202 0 8 3.5846798 8 8v62c0 4.4153202-3.5846798 8-8 8H8c-4.4153202 0-8-3.5846798-8-8V8c0-4.4153202 3.5846798-8 8-8z"/>
    <g>
      <use fill="none" xlink:href="#rect-2"/>
      <g mask="url(#mask-3)">
        <path fill="rgb(255,255,255)" fill-rule="evenodd" d="M30.31835938 18.67492676h1.77694702c.8483429 0 1.53848266.85571289 1.53848266 1.90771484v5.8540039c.00009156 1.05200196-.69003296 1.90783692-1.53837585 1.90783692h-5.28349304c-.8483429 0-1.53848267-.85571289-1.53848267-1.90771484v-6.30175781c0-7.98461914 3.6796875-9.91723633 6.76660156-10.13256836.26786804-.01831055.53056336.10021972.7256775.32897949.19512939.22875976.30566406.54711914.30566406.88000488v3.6237793c0 .6262207-.38505555 1.14916992-.88807679 1.20593262-.50352478.0567627-1.59765625.1800537-1.86494445 2.63378906zm-3.09179688 7.2475586h4.45419312v-4.8256836H29.2820282c-.53935242 0-.9765625-.54223633-.9765625-1.2109375 0-4.09313965 1.50508118-5.55090332 2.81278992-6.0444336V12.5682373c-1.8935547.43920899-3.89169312 1.99523926-3.89169312 7.56677247v5.78747558z"/>
        <path fill="rgb(255,255,255)" fill-rule="evenodd" d="M40.30215454 18.67492676h1.77705383c.8483429 0 1.53846741.85571289 1.53846741 1.90771484v5.85388184c.00010681 1.05212402-.69012451 1.90795898-1.5384674 1.90795898h-5.28349305c-.8483429 0-1.53848266-.85571289-1.53848266-1.90771484v-6.30175781c0-7.98461914 3.6796875-9.91723633 6.76660156-10.13256836.26766968-.01831055.53056335.10021972.72567749.32897949.1951294.22875976.30566406.54711914.30566406.88000488v3.6237793c0 .6262207-.38505554 1.14916992-.88807678 1.20593262-.50352478.0567627-1.59765625.1800537-1.86494446 2.63378906zm-3.09179687 7.24768066h4.45419311v-4.82580566h-2.39872742c-.53935241 0-.9765625-.54223633-.9765625-1.2109375 0-4.09313965 1.50508118-5.55090332 2.81278992-6.0444336V12.5682373c-1.89355469.43920899-3.89169311 1.99523926-3.89169311 7.56677247v5.78759765z"/>
        <path fill="rgb(255,255,255)" fill-rule="evenodd" d="M47.83886719 19.78376953c-.18164063-.22523437-.43359375-.35480469-.69042969-.35480469s-.50878906.12957032-.69042969.3548047c-.18164062.22523437-.28613281.53765624-.28613281.8561328 0 .31847657.10449219.63089844.28613281.85613282.18164063.22523437.43359375.35480468.69042969.35480468s.50878906-.1295703.69042969-.35480468c.18164062-.22523438.28613281-.53765625.28613281-.85613282 0-.31847656-.10449219-.63089843-.28613281-.8561328z"/>
        <path fill="rgb(255,255,255)" fill-rule="evenodd" d="M52.64326172 19.42884375h-1.2305664c-.53935548 0-.9765625.54213672-.9765625 1.2109375s.43720702 1.2109375.9765625 1.2109375h1.2305664c8.49355469 0 15.40361328 8.56847266 15.40361328 19.10048047 0 8.98903125-5.14140625 16.8504375-12.22529297 18.69263672-.4522461.11770312-.77607422.61225-.77607422 1.18514453v7.03603125l-6.01503906-7.45864844c-.18310547-.22705078-.43154297-.3546836-.69052734-.3546836H37.35673828c-8.49355469 0-15.40361328-8.56847265-15.40361328-19.10048046 0-3.24591797.66826172-6.45114844 1.93261719-9.26948438.26230469-.58439843.09267578-1.32173828-.37861328-1.646875-.47138672-.3252578-1.06601563-.11491797-1.328125.46948047C20.75341797 33.68169921 20 37.29416797 20 40.95119921 20 52.81875 27.78613281 62.4735547 37.35673828 62.4735547h10.57871094l7.39609375 9.17115625c.1868164.23165234.43652344.3546836.69072265.3546836.12578125 0 .25273438-.03015235.37353516-.09227345.36484375-.18733203.60283203-.62883984.60283203-1.11866406v-8.9998086c3.5334961-1.135375 6.72851563-3.6617539 9.0631836-7.1860664C68.60136719 50.7691172 70 45.92100781 70 40.95119922c0-11.86742969-7.78613281-21.52223438-17.35673828-21.52235547z"/>
        <path fill="rgb(255,255,255)" fill-rule="evenodd" d="M57.01796875 31.49317188H32.98212891c-.53935547 0-.9765625.54213671-.9765625 1.2109375 0 .66880078.43720703 1.2109375.9765625 1.2109375h24.03574218c.53935547 0 .97666016-.54213672.97666016-1.2109375 0-.66880079-.43720703-1.2109375-.9765625-1.2109375z"/>
        <path fill="rgb(255,255,255)" fill-rule="evenodd" d="M57.01796875 37.95146484H32.98212891c-.53935547 0-.9765625.54213672-.9765625 1.2109375 0 .66880079.43720703 1.2109375.9765625 1.2109375h24.03574218c.53935547 0 .97666016-.54213671.97666016-1.2109375 0-.66880078-.43720703-1.2109375-.9765625-1.2109375z"/>
        <path fill="rgb(255,255,255)" fill-rule="evenodd" d="M57.01796875 44.40975781H32.98212891c-.53935547 0-.9765625.54225781-.9765625 1.2109375s.43720703 1.2109375.9765625 1.2109375h24.03574218c.53935547 0 .97666016-.54225781.97666016-1.2109375s-.43720703-1.2109375-.9765625-1.2109375z"/>
        <path fill="rgb(255,255,255)" fill-rule="evenodd" d="M57.0178711 50.86817188H44.20615233c-.53935546 0-.9765625.5422578-.9765625 1.2109375 0 .66867968.43720704 1.2109375.9765625 1.2109375H57.0178711c.53935547 0 .9765625-.54225782.9765625-1.2109375 0-.6686797-.43720703-1.2109375-.9765625-1.2109375z"/>
        <path fill="rgb(255,255,255)" fill-rule="evenodd" d="M38.7116211 50.86805078h-.01572266c-.53935547 0-.9765625.54225781-.9765625 1.2109375s.43720703 1.2109375.9765625 1.2109375h.01572265c.53935547 0 .9765625-.54225781.9765625-1.2109375s-.43720703-1.2109375-.9765625-1.2109375z"/>
      </g>
    </g>
  </g>
</svg>
