<svg xmlns="http://www.w3.org/2000/svg" xmlns:xlink="http://www.w3.org/1999/xlink" width="60" height="59" viewBox="0 0 60 59">
  <defs>
    <rect id="rect-1" width="60" height="59" x="0" y="0"/>
    <mask id="mask-2" maskContentUnits="userSpaceOnUse" maskUnits="userSpaceOnUse">
      <rect width="60" height="59" x="0" y="0" fill="black"/>
      <use fill="white" xlink:href="#rect-1"/>
    </mask>
  </defs>
  <g>
    <use fill="none" xlink:href="#rect-1"/>
    <g mask="url(#mask-2)">
      <path fill="rgb(255,255,255)" fill-rule="evenodd" d="M54.7265625 7.02929688H5.2734375C2.36929321 7.02929688 0 9.35668945 0 12.21484374v34.5703125c0 2.84863281 2.35876465 5.18554688 5.2734375 5.18554688h49.453125C57.6234436 51.97070313 60 49.65136718 60 46.78515624v-34.5703125c0-2.84863281-2.35876465-5.18554688-5.2734375-5.18554688zm-.72817993 3.45703124L30.1118164 33.97485353 6.01864624 10.48632812h47.97973633zM3.515625 12.91430664v33.1550293l16.93112183-16.64892578L3.515625 12.91430664zM39.63433838 29.5L56.484375 46.0690918V12.93066406L39.63433838 29.5zM6.00152588 48.51367188l16.94180298-16.65942383 5.93637085 5.78735351c.6871643.66992188 1.79611206.66772461 2.48049926-.0053711l5.78823853-5.69165038 16.85003662 16.5690918H6.00152588z"/>
    </g>
  </g>
</svg>
