<svg xmlns="http://www.w3.org/2000/svg" width="37.989" height="28.213" viewBox="0 0 37.989 28.213">
  <g>
    <path fill="rgb(121,82,179)" fill-rule="evenodd" d="M37.3605957 14.65838623c-.08221435.07214356-2.0489502 1.78674316-5.27520752 3.51519775-1.26843261.6795044-2.55541992 1.26434327-3.8484497 1.7520752l9.35009765 7.09326172-1.5739746 1.1940918L.397583 1.19406128 1.9715576 0l9.96234132 7.5576477c2.38146972-.69268798 4.76000976-1.05026245 7.05847168-1.05026245 4.2524414 0 8.77990722 1.22137452 13.09301757 3.53198243 3.22631836 1.72845459 5.1930542 3.4430542 5.27520752 3.51519775l.62841797.55194092-.62841797.55187988zm-12.80334472-.55194092c0-2.32781982-2.49639893-4.22167968-5.56488037-4.22167968-1.13256836 0-2.18676758.25860595-3.06658936.7012329l1.62792969 1.23498536c.43591308-.15856934.92376709-.2475586 1.43865967-.2475586 1.84106445 0 3.33892822 1.13635254 3.33892822 2.53302002 0 .390625-.11730957.76080323-.32635498 1.0914917l1.62792969 1.23498535c.58349609-.66760254.92437744-1.46722412.92437744-2.32647705z"/>
    <path fill="rgb(121,82,179)" fill-rule="evenodd" d="M18.99231746 18.32818777c-3.06849487 0-5.56491633-1.89385907-5.56491633-4.22170993 0-.2025295.0200337-.40151275.05661375-.59655575l-5.76517913-4.3736352c-.60917284.27981493-1.21560032.58051326-1.81779847.90316448C2.67576018 11.76793199.71000913 13.4825654.62787096 13.5547285L0 14.10647784l.62787096.55174935c.08213817.0721631 2.04788921 1.7867965 5.27316632 3.51522084 4.31177138 2.31068257 8.83871952 3.53210769 13.09128018 3.53210769 1.53064879 0 3.09698724-.15907403 4.6760879-.46939786l-3.88972812-2.95086266c-.25709914.02769442-.5193922.04289257-.78635978.04289257z"/>
  </g>
</svg>
