<svg xmlns="http://www.w3.org/2000/svg" xmlns:xlink="http://www.w3.org/1999/xlink" width="34" height="33" viewBox="0 0 34 33">
  <defs>
    <rect id="rect-1" width="34" height="33" x="0" y="0"/>
    <mask id="mask-2" maskContentUnits="userSpaceOnUse" maskUnits="userSpaceOnUse">
      <rect width="34" height="33" x="0" y="0" fill="black"/>
      <use fill="white" xlink:href="#rect-1"/>
    </mask>
  </defs>
  <g>
    <use fill="none" xlink:href="#rect-1"/>
    <g mask="url(#mask-2)">
      <path fill="rgb(255,255,255)" fill-rule="evenodd" d="M1.03027344 16.5c0-7.40409088 6.45788574-13.40625 14.42419433-13.40625 7.9663086 0 14.42431641 6.00215912 14.42431641 13.40625s-6.45800781 13.40625-14.4243164 13.40625c-7.9663086 0-14.42419434-6.00215912-14.42419434-13.40625zm17.9321289-6.57818222l1.9951172-.00082398.00024413-3.26577568-2.90722656-.00411415c-2.87609863 0-4.84594727 1.63206482-4.84594727 4.62875748v2.5822277H9.95166016v3.5013981h3.25292968v8.98540878h3.89111328v-8.98540879h3.7286377l.00183106-3.50139808h-3.7307129v-2.2355175c0-1.01380158.30249024-1.70475388 1.86694336-1.70475388z"/>
    </g>
  </g>
</svg>
