<svg xmlns="http://www.w3.org/2000/svg" width="44" height="47" viewBox="0 0 44 47">
  <g>
    <path fill="rgb(121,82,179)" fill-rule="evenodd" d="M5.5 47h33c3.03112793 0 5.5-1.97595215 5.5-4.40625v-20.5625c0-2.43029785-2.46887207-4.40625-5.5-4.40625h-33c-3.03112793 0-5.5 1.97595215-5.5 4.40625v20.5625C0 45.02404785 2.46887207 47 5.5 47zM3.66668701 22.03125c0-.8107605.8237915-1.46875 1.83331299-1.46875h33c1.00958252 0 1.83337402.6579895 1.83337402 1.46875v20.5625c0 .81072998-.8237915 1.46875-1.83337402 1.46875h-33c-1.00952148 0-1.83331299-.65802002-1.83331299-1.46875v-20.5625z"/>
    <path fill="rgb(121,82,179)" fill-rule="evenodd" d="M34.83333333 20.5625C33.82133333 20.5625 33 19.9045 33 19.09375V11.75c0-4.858625-4.93533333-8.8125-11-8.8125S11 6.891375 11 11.75v7.34375c0 .81075-.82133333 1.46875-1.83333333 1.46875s-1.83333334-.658-1.83333334-1.46875V11.75C7.33333333 5.269875 13.91133333 0 22 0c8.08866667 0 14.66666667 5.269875 14.66666667 11.75v7.34375c0 .81075-.82133334 1.46875-1.83333334 1.46875z"/>
    <path fill="rgb(121,82,179)" fill-rule="evenodd" d="M17.11108398 29.375c0 2.16003418 2.192688 3.91662598 4.88891602 3.91662598 2.696167 0 4.88885498-1.7565918 4.88885498-3.91662598 0-2.16003418-2.19268799-3.91668701-4.88885498-3.91668701-2.69622803 0-4.88891602 1.75665283-4.88891602 3.91668701zm3.66668702 0c0-.54052734.54998779-.97918701 1.222229-.97918701s1.222229.43865967 1.222229.97918701c0 .5404663-.54998779.97912598-1.222229.97912598S20.777771 29.9154663 20.777771 29.375z"/>
    <path fill="rgb(121,82,179)" fill-rule="evenodd" d="M22 39.16666667c-1.012 0-1.83333333-.658-1.83333333-1.46875V32.3125c0-.81075.82133333-1.46875 1.83333333-1.46875s1.83333333.658 1.83333333 1.46875v5.38541667c0 .81075-.82133333 1.46875-1.83333333 1.46875z"/>
  </g>
</svg>
