<svg xmlns="http://www.w3.org/2000/svg" xmlns:xlink="http://www.w3.org/1999/xlink" width="56" height="53" viewBox="0 0 56 53">
  <defs>
    <rect id="rect-1" width="56" height="53" x="0" y="0"/>
    <mask id="mask-2" maskContentUnits="userSpaceOnUse" maskUnits="userSpaceOnUse">
      <rect width="56" height="53" x="0" y="0" fill="black"/>
      <use fill="white" xlink:href="#rect-1"/>
    </mask>
  </defs>
  <g>
    <use fill="none" xlink:href="#rect-1"/>
    <g mask="url(#mask-2)">
      <path fill="rgb(121,82,179)" fill-rule="evenodd" d="M7.45599365 46.27386475C7.8569336 46.480896 17.39880371 51.34375 28 51.34375c11.4852295 0 20.20941162-4.87908936 20.57519531-5.08673096C48.83874511 46.10733032 49 45.83776855 49 45.546875c0-6.68637085-2.16638184-12.8048706-6.09997559-17.2293396-2.75164795-3.0951233-6.2041626-5.20477295-10.01208496-6.17593384 4.8010254-2.16235351 7.37884522-7.18383789 6.20770264-12.09231567C37.92449951 5.14083862 33.31689453 1.65496826 28 1.65496826s-9.92449951 3.48587036-11.09564209 8.39431763c-1.17114258 4.90847778 1.40667725 9.92996216 6.20770264 12.09231567-3.80792237.9711609-7.26043701 3.08111573-10.01208496 6.17593384C9.16638184 32.7420044 7 38.86050415 7 45.546875c0 .30303955.17486572.58187866.45599365.72698975zM18.375 12.421875C18.375 7.39089966 22.68426514 3.3125 28 3.3125s9.625 4.07839966 9.625 9.109375S33.31573486 21.53125 28 21.53125c-5.31323242-.00570679-9.61895752-4.08078003-9.625-9.109375zM28 23.1875c-5.19226074 0-10.0078125 2.200531-13.56103516 6.1963501-3.5706787 4.01608276-5.57958984 9.56109619-5.6845703 15.66033935C10.7734375 46.00140381 19.12860106 49.6875 28 49.6875c9.59307861 0 17.37371826-3.66445923 19.24609375-4.62371826-.10076904-6.10681153-2.11053467-11.65960694-5.68499756-15.67993164C38.0078125 25.388031 33.19226074 23.1875 28 23.1875z"/>
    </g>
  </g>
</svg>
