<svg xmlns="http://www.w3.org/2000/svg" width="30" height="28.091" viewBox="0 0 30 28.091">
  <path fill="rgb(255,255,255)" fill-rule="evenodd" d="M15 0C6.7125 0 0 6.42330259 0 14.34537577c0 6.3393617 4.2975 11.71522802 10.25625 13.6105889.75.13503533 1.025-.3089998 1.025-.68977512 0-.34062968-.0125-1.24329834-.01875-2.43915183-4.1725.86495609-5.0525-1.9245577-5.0525-1.9245577-.6825-1.65570357-1.66875-2.09852216-1.66875-2.09852216-1.35875-.88928678.105-.87103876.105-.87103876 1.50625.09975584 2.2975 1.47808952 2.2975 1.47808952 1.3375 2.19341185 3.51125 1.55959733 4.36875 1.19342042.135-.92821588.52125-1.55959733.95-1.91847503-3.33125-.3588777-6.8325-1.59244377-6.8325-7.088747 0-1.56568.58125-2.84547439 1.54375-3.84911542-.16875-.3625273-.675-1.82115226.13125-3.79680442 0 0 1.25625-.38442493 4.125 1.4707903 1.2-.31873205 2.475-.47688155 3.75-.48418076 1.275.00729921 2.55.1654487 3.75.48418077 2.85-1.85521524 4.10625-1.47079031 4.10625-1.47079031.80625 1.97565216.3 3.43427712.15 3.79680442.95625 1.00364103 1.5375 2.28343541 1.5375 3.84911542 0 5.51090165-3.50625 6.72378662-6.84375 7.07658165.525.43065324 1.0125 1.31020775 1.0125 2.65447846 0 1.91969157-.01875 3.46225741-.01875 3.92819016 0 .37590918.2625.82481044 1.03125.68125936C25.70625 26.05452111 30 20.6750052 30 14.34537577 30 6.4233026 23.28375 0 15 0z"/>
</svg>
