<svg xmlns="http://www.w3.org/2000/svg" width="84" height="72" viewBox="0 0 84 72">
  <g>
    <path fill="rgb(71,47,146)" fill-rule="evenodd" d="M8 0h68c4.4153202 0 8 3.5846798 8 8v56c0 4.4153202-3.5846798 8-8 8H8c-4.4153202 0-8-3.5846798-8-8V8c0-4.4153202 3.5846798-8 8-8z"/>
    <g>
      <path fill="rgb(255,255,255)" fill-rule="evenodd" d="M75 51.61645508v-6.17419434l-4.96595764-1.31256103c-.13275147-.32623291-.28045654-.64764405-.44250488-.96343994l2.48425293-4.1005249-4.8335724-4.36566163-4.53973388 2.24383545c-.3496399-.14648437-.70570373-.27990723-1.06677246-.3998413l-1.45309448-4.4852295h-1.59439087V9H13v51.0588379h30.7408142l2.54638673 2.29980468 4.53973388-2.24383545c.3497467.14648437.70570374.27990723 1.0667572.3998413L53.34680177 65h6.83569336l1.45309448-4.48535156c.36106873-.11993408.7170105-.25335694 1.06677246-.39984131l4.53973389 2.24383545 4.83357238-4.36566162-2.48425292-4.1005249c.16204834-.3157959.30975341-.6373291.44250488-.96343995L75 51.61645508zM16.6470642 12.29412842h38.29411317v19.76470947h-1.59437561l-1.45309448 4.48535156c-.36106873.11993409-.7170105.25335694-1.06677247.39984131l-4.53973388-2.24383545-4.83357239 4.36566162 2.48425293 4.1005249c-.16204834.3157959-.30975342.6373291-.44250488.96343995l-4.96595764 1.31256103v6.17419434l4.96595764 1.31256103c.13275146.32623291.28045654.64764405.44250488.96343994l-1.7400055 2.87213135H16.64706422V12.29412842zm49.94853211 45.99005127l.9689026-.87512207-2.11651612-3.49365235c.2771759-.4901123.94836426-1.35284423 1.3991394-2.77648925l.27632141-.87280274 4.2294922-1.11791992V47.9105835l-4.22937013-1.11779786-.2763214-.87286376c-.4453125-1.40625-1.08779908-2.22601319-1.39913941-2.77648926l2.11651611-3.49353028-.96890259-.87512207-3.86782837 1.9118042-.87895202-.44128418c-1.42562866-.71569824-2.50674439-.88018799-3.16137695-1.07202148l-1.23770142-3.8203125h-1.37019348l-1.23768616 3.82043457-.96672058.24957275c-1.55583191.40167237-2.46212769.98138428-3.07374573 1.26361084l-3.86782837-1.9118042-.96890259.87512207 2.11651612 3.49353028-.48846436.79388427c-.79214477 1.28778077-.97473144 2.26483155-1.18699646 2.85546875l-4.22937011 1.11791993v1.23760986l4.22924804 1.11791992c.18916321.52624512.38500977 1.55181885 1.18699646 2.85540772l.48846436.79388427-2.11651612 3.49353028.9689026.87512207 3.86782836-1.9118042c.54389954.25079346 1.50076294.85760498 3.07374573 1.26367187l.96672058.24957276 1.23768616 3.8203125h1.37019348l1.23757934-3.8203125.96670533-.24957276c1.5558319-.40155029 2.46212768-.98156738 3.07374572-1.26367187l3.86782837 1.9118042z"/>
      <path fill="rgb(255,255,255)" fill-rule="evenodd" d="M51.29411316 48.52941895c0-2.72467041 2.45410156-4.94116211 5.47058105-4.94116211 3.01649475 0 5.47059632 2.2164917 5.47059632 4.9411621-.29930115 6.55322266-10.64065552 6.55517579-10.94117737 0zm3.6470642 0c0 .90826416.81803895 1.64703369 1.82353211 1.64703369 1.00549317 0 1.8235321-.73876953 1.8235321-1.6470337-.09980773-2.18444824-3.54689025-2.18511962-3.6470642 0z"/>
      <path fill="rgb(255,255,255)" fill-rule="evenodd" d="M20.29411765 48.52941176h12.76470588v3.29411765H20.29411765v-3.29411765z"/>
      <path fill="rgb(255,255,255)" fill-rule="evenodd" d="M20.29411765 41.94117647h12.76470588v3.29411765H20.29411765v-3.29411765z"/>
      <path fill="rgb(255,255,255)" fill-rule="evenodd" d="M20.29411765 35.35294118h12.76470588v3.29411764H20.29411765v-3.29411764z"/>
      <path fill="rgb(255,255,255)" fill-rule="evenodd" d="M20.29411765 28.76470588h12.76470588v3.29411765H20.29411765v-3.29411765z"/>
      <path fill="rgb(255,255,255)" fill-rule="evenodd" d="M20.29411765 22.17647059h31v3.29411765h-31v-3.29411765z"/>
      <path fill="rgb(255,255,255)" fill-rule="evenodd" d="M20.29411765 15.5882353h31v3.29411764h-31V15.5882353z"/>
    </g>
  </g>
</svg>
