<svg xmlns="http://www.w3.org/2000/svg" xmlns:xlink="http://www.w3.org/1999/xlink" width="311" height="309" viewBox="0 0 311 309">
  <defs>
    <rect id="rect-1" width="311" height="309" x="0" y="0"/>
    <mask id="mask-2" maskContentUnits="userSpaceOnUse" maskUnits="userSpaceOnUse">
      <rect width="311" height="309" x="0" y="0" fill="black"/>
      <use fill="white" xlink:href="#rect-1"/>
    </mask>
  </defs>
  <g>
    <use fill="none" xlink:href="#rect-1"/>
    <g mask="url(#mask-2)">
      <path fill="rgb(71,47,146)" fill-rule="evenodd" d="M51.21983662 309h208.56099603c3.00301063 0 5.44048884-2.42180311 5.44048884-5.40550178V33.70708392c0-2.98369867-2.4374782-5.40550178-5.44048884-5.40550178H230.9259629c-3.00301064 0-5.44048885 2.42180311-5.44048885 5.40550178s2.43747821 5.40550178 5.44048885 5.40550178h23.4143809v259.07774067H56.6596562V39.11192074H80.0800605c3.00301064 0 5.44048885-2.42180311 5.44048885-5.40550178s-2.43747821-5.40550178-5.44048885-5.40550178H51.21983662c-3.00301063 0-5.44048885 2.4218031-5.44048885 5.40550178v269.88807926c0 2.98436364 2.4314548 5.40550178 5.44048885 5.40550178z"/>
      <path fill="rgb(71,47,146)" fill-rule="evenodd" d="M209.16534424 74.48937988h-107.3300171c-3.00299071 0-5.44049071-2.42178344-5.44049071-5.39950561V21.58343506c0-2.98370361 2.4375-5.40548706 5.44049072-5.40548706h17.70214844V5.40548706c0-2.9836731 2.4375-5.40548706 5.44049072-5.40548706h61.03936767c3.00299073 0 5.44049073 2.42181396 5.44049073 5.40548706v10.7664795h17.70751953c3.00299072 0 5.44049072 2.42178344 5.44049072 5.40548705v47.50643921c0 2.98370362-2.4375 5.40548706-5.44049072 5.40548706zm-84.18804932-47.5064392h-17.70214844V63.6843872h96.44970704V26.98828125h-17.70214844c-3.00305176 0-5.44049072-2.42181396-5.44049072-5.40551758V10.81033325h-50.16442872v10.76712036c0 2.98370362-2.43743896 5.40548706-5.44049072 5.40548706z"/>
      <ellipse cx="155.497" cy="32.545" fill="rgb(71,47,146)" rx="10.173" ry="10.107"/>
    </g>
  </g>
</svg>
