<svg xmlns="http://www.w3.org/2000/svg" xmlns:xlink="http://www.w3.org/1999/xlink" width="125" height="122" viewBox="0 0 125 122">
  <defs>
    <rect id="rect-1" width="125" height="122" x="0" y="0"/>
    <mask id="mask-2" maskContentUnits="userSpaceOnUse" maskUnits="userSpaceOnUse">
      <rect width="125" height="122" x="0" y="0" fill="black"/>
      <use fill="white" xlink:href="#rect-1"/>
    </mask>
  </defs>
  <g>
    <use fill="none" xlink:href="#rect-1"/>
    <g mask="url(#mask-2)">
      <path fill="rgb(71,47,146)" fill-rule="evenodd" d="M62.16559767 15.31100848V.9384577c0-.79847504 1.0226371-1.22266491 1.71291713-.723618l30.270058 21.70854024c.51131856.37428517.51131856 1.09790318 0 1.47218836l-30.270058 21.70854025c-.69028004.4990469-1.71291713.04990469-1.71291713-.72361801V30.0328921c-22.44688423.34933283-40.41973117 18.96378228-38.88577553 41.27117881 1.3038623 19.16340105 17.30813283 34.70871205 36.94276505 35.93137696 20.81066488 1.29752195 38.50228662-13.2247429 41.67246161-32.4130963.58801633-3.56818535 3.75819132-6.16322924 7.4652508-6.16322924 4.576301 0 8.1299649 3.96742287 7.41411893 8.35903561-4.44847136 27.3727226-30.29562393 47.90850262-60.2588908 44.6397454-25.05460883-2.74475795-45.17499367-22.30739652-48.0128116-46.76069473-3.75819133-31.98890643 21.70547233-59.2368673 53.66288154-59.58620013z"/>
    </g>
  </g>
</svg>
