<svg xmlns="http://www.w3.org/2000/svg" xmlns:xlink="http://www.w3.org/1999/xlink" width="54" height="50" viewBox="0 0 54 50">
  <defs>
    <rect id="rect-1" width="54" height="50" x="0" y="0"/>
    <mask id="mask-2" maskContentUnits="userSpaceOnUse" maskUnits="userSpaceOnUse">
      <rect width="54" height="50" x="0" y="0" fill="black"/>
      <use fill="white" xlink:href="#rect-1"/>
    </mask>
  </defs>
  <g>
    <use fill="none" xlink:href="#rect-1"/>
    <g mask="url(#mask-2)">
      <path fill="rgb(71,47,146)" fill-rule="evenodd" d="M39.447 36.328125c-.87075-2.940625-3.958875-4.76875-6.95925-6.25-4.66425-2.3-9.126-4.334375-13.81725-6.640625-2.352375-1.153125-4.6305-2.234375-6.328125-3.809375-2.09925-1.940625-3.81375-5.059375-4.32675-7.909375-.16875-.9375-.20925-2.3875-.20925-3.90625-2.42325 1.9-4.47525 4.934375-5.801625 8.10625C.97875 18.365625.162 21.05625 0 24.025v2.05c.41175 7.028125 3.58425 12.26875 7.59375 16.309375 4.026375 4.053125 9.892125 6.85 17.296875 7.615625h3.587625c3.020625-.4375 5.55525-1.728125 7.489125-3.6125 2.095875-2.046875 4.714875-5.903125 3.479625-10.059375z"/>
      <path fill="rgb(70,47,145)" fill-rule="evenodd" d="M27.84375 0H26.4735c-2.77425.43125-5.481 1.165625-7.06725 2.834375-1.11375 1.16875-1.99125 3.25-2.109375 4.5875-.4995 5.746875 3.94875 7.8375 8.12025 9.865625 4.323375 2.096875 8.7885 4.228125 13.186125 6.346875 2.264625 1.09375 4.32675 2.221875 5.90625 3.809375 2.8755 2.8875 4.671 6.65 4.323375 12.109375.712125-.6375 1.35675-1.528125 1.89675-2.440625C52.299 34.45625 53.568 31.071875 53.895375 27.15c-.016875-.115625.02025-.175.104625-.196875v-3.90625C52.14375 9.309375 42.04575 1.059375 27.84375 0z"/>
    </g>
  </g>
</svg>
