<svg xmlns="http://www.w3.org/2000/svg" xmlns:xlink="http://www.w3.org/1999/xlink" width="86" height="78" viewBox="0 0 86 78">
  <defs>
    <rect id="rect-2" width="55" height="50" x="15" y="15"/>
    <mask id="mask-3" maskContentUnits="userSpaceOnUse" maskUnits="userSpaceOnUse">
      <rect width="86" height="78" x="0" y="0" fill="black"/>
      <use fill="white" xlink:href="#rect-2"/>
    </mask>
  </defs>
  <g>
    <path fill="rgb(243,85,142)" fill-rule="evenodd" d="M8 0h70c4.4153202 0 8 3.5846798 8 8v62c0 4.4153202-3.5846798 8-8 8H8c-4.4153202 0-8-3.5846798-8-8V8c0-4.4153202 3.5846798-8 8-8z"/>
    <g>
      <use fill="none" xlink:href="#rect-2"/>
      <g mask="url(#mask-3)">
        <path fill="rgb(255,255,255)" fill-rule="evenodd" d="M63.91915894 33.10473633c.62928772-.57202149 1.64956665-.57202149 2.27874755 0 .62927247.57214355.62927247 1.49963379 0 2.07165527l-5.97329711 5.43029785v22.9284668C60.22460938 64.34411621 59.50315856 65 58.61328125 65h-32.2265625c-.88989258 0-1.61132813-.65588379-1.61132813-1.46484375v-22.9284668l-5.97341918-5.43029785c-.62927247-.57214355-.62927247-1.49951172 0-2.07165527.62928772-.57202149 1.6495819-.57202149 2.27874755 0l5.97340393 5.43041992h30.8917389l5.97329712-5.43041992zm-35.92111207 8.36010742V62.0703125h29.00390626V41.46484375H27.99804688z"/>
        <path fill="rgb(255,255,255)" fill-rule="evenodd" d="M42.5 44.39453125c-2.66545898 0-4.83398438 1.97138672-4.83398438 4.39453125 0 .80898438.72144532 1.46484375 1.61132813 1.46484375s1.61132813-.65585937 1.61132813-1.46484375c0-.80771484.7228418-1.46484375 1.61132812-1.46484375.88848633 0 1.61132813.6571289 1.61132813 1.46484375 0 .61728516-.4291504 1.171875-1.06777344 1.37978516-1.28895508.41972656-2.15488282 1.53779297-2.15488282 2.7821289v.23261719c0 .80898437.72144532 1.46484375 1.61132813 1.46484375s1.61132813-.65585938 1.61132813-1.46484375v-.23251953c0-.01035156.00805664-.02050781.01901367-.0241211 1.9161914-.62402343 3.20364258-2.28691406 3.20364258-4.13789062 0-2.42314453-2.1685254-4.39453125-4.83398438-4.39453125z"/>
        <ellipse cx="42.5" cy="57.578" fill="rgb(255,255,255)" rx="1.611" ry="1.465"/>
        <path fill="rgb(255,255,255)" fill-rule="evenodd" d="M42.5 35.60546875c-.41238403 0-.82478333-.14294434-1.13931274-.42895508l-9.66796875-8.7890625c-.46084595-.41894531-.59866333-1.04907226-.34933472-1.59643554.24932861-.54736329.83691406-.90429688 1.48864746-.90429688h3.22265625v-7.421875C36.0546875 15.65588379 36.7761383 15 37.66601563 15h9.66796875c.88989257 0 1.61132812.65588379 1.61132812 1.46484375v7.421875h3.22265625c.6517334 0 1.2393341.3569336 1.48864746.90429688.24932861.54736328.11151123 1.17749023-.34933472 1.59643554l-9.66796875 8.7890625c-.31452941.28601074-.72691345.42895508-1.13931274.42895508zM39.27734375 25.3515625c0 .80895996-.72143555 1.46484375-1.61132813 1.46484375h-.94390869L42.5 32.0690918l5.77790833-5.25268555h-.94392396c-.88987731 0-1.61132812-.65588379-1.61132812-1.46484375v-7.421875h-6.4453125v7.421875z"/>
      </g>
    </g>
  </g>
</svg>
