<svg xmlns="http://www.w3.org/2000/svg" xmlns:xlink="http://www.w3.org/1999/xlink" width="51" height="48" viewBox="0 0 51 48">
  <defs>
    <rect id="rect-1" width="51" height="48" x="0" y="0"/>
    <mask id="mask-2" maskContentUnits="userSpaceOnUse" maskUnits="userSpaceOnUse">
      <rect width="51" height="48" x="0" y="0" fill="black"/>
      <use fill="white" xlink:href="#rect-1"/>
    </mask>
    <rect id="rect-4" width="48" height="42" x="0" y="6"/>
    <mask id="mask-5" maskContentUnits="userSpaceOnUse" maskUnits="userSpaceOnUse">
      <rect width="51" height="48" x="0" y="0" fill="black"/>
      <use fill="white" xlink:href="#rect-4"/>
    </mask>
  </defs>
  <g>
    <g>
      <use fill="none" xlink:href="#rect-1"/>
      <g mask="url(#mask-2)">
        <path fill="rgb(255,255,255)" fill-rule="evenodd" d="M0 24C0 10.7859373 11.45800781 0 25.5 0 39.539917 0 51 10.78406239 51 24c0 13.21406174-11.45800781 24-25.5 24C11.460083 48 0 37.21593857 0 24zm2.98828125 0c0 11.68284225 10.09875488 21.1875 22.51171875 21.1875S48.01171875 35.68284225 48.01171875 24c0-11.68284416-10.09875488-21.1875-22.51171875-21.1875S2.98828125 12.31715584 2.98828125 24z"/>
      </g>
    </g>
    <g>
      <use fill="none" xlink:href="#rect-4"/>
      <g mask="url(#mask-5)">
        <path fill="rgb(255,255,255)" fill-rule="evenodd" d="M29.6929668 13.81391729c2.45584705 0 4.46514791-1.75813826 4.46514791-3.90700443C34.15811471 7.75813826 32.14881385 6 29.6929668 6c-2.45584705 0-4.46514791 1.75813826-4.46514791 3.90700443 0 2.14886617 2.00940551 3.90691286 4.46514791 3.90691286z"/>
        <path fill="rgb(255,255,255)" fill-rule="evenodd" d="M41.9720974 28.46506943V24.558065c-4.13026444 0-7.70231998-1.95345643-9.71162085-4.78607356l-2.12096357-3.12545703c-.78142966-1.17209217-2.23252163-1.85584312-3.79538096-1.85584312-.55810425 0-1.11631314.09770487-1.67441739.29302304L12.94879292 19.2837418v9.1814192h4.46514791v-6.54421181l3.90693902-1.36741035-3.46049748 15.72553945-10.93949205-1.85584313-.89298772 3.80929955s15.62786073 2.63720739 15.62786073 2.73491226l2.12096358-8.59537311 4.8000314 3.90700443V48h4.46514791V33.25114299l-4.57681063-4.00461773 1.33953391-5.86046086c2.9022886 3.1255486 7.2557738 5.07900503 12.1674679 5.07900503z"/>
      </g>
    </g>
  </g>
</svg>
