<svg xmlns="http://www.w3.org/2000/svg" xmlns:xlink="http://www.w3.org/1999/xlink" width="97" height="98" viewBox="0 0 97 98">
  <defs>
    <rect id="rect-1" width="97" height="98" x="0" y="0"/>
    <mask id="mask-2" maskContentUnits="userSpaceOnUse" maskUnits="userSpaceOnUse">
      <rect width="97" height="98" x="0" y="0" fill="black"/>
      <use fill="white" xlink:href="#rect-1"/>
    </mask>
  </defs>
  <g>
    <use fill="none" xlink:href="#rect-1"/>
    <g mask="url(#mask-2)">
      <path fill="rgb(71,47,146)" fill-rule="evenodd" d="M29.91919206 22.00253787h29.9289356c.78644188 0 1.42374813-.64407863 1.42374813-1.4386298 0-.79455115-.63730625-1.43862979-1.42374813-1.43862979h-29.9289356c-.78644188 0-1.42394698.64407864-1.42394698 1.4386298 0 .79455116.6375051 1.4386298 1.42394698 1.4386298z"/>
      <path fill="rgb(71,47,146)" fill-rule="evenodd" d="M3.15232949 36.06860458h29.92873674c.78644188 0 1.42394698-.64407864 1.42394698-1.4386298 0-.79455115-.6375051-1.4384289-1.42394698-1.4384289H3.1523295c-.78644188 0-1.42394698.64387775-1.42394698 1.4384289 0 .79455116.6375051 1.4386298 1.42394698 1.4386298z"/>
      <path fill="rgb(71,47,146)" fill-rule="evenodd" d="M11.1867629 50.87015846c0 .79455116.6375051 1.4388307 1.42394699 1.4388307h29.92873674c.78644188 0 1.42394698-.64427954 1.42394698-1.4388307 0-.79455115-.6375051-1.4384289-1.42394698-1.4384289H12.61070989c-.78644188 0-1.42394698.64387775-1.42394698 1.4384289z"/>
      <path fill="rgb(71,47,146)" fill-rule="evenodd" d="M28.31508925 67.5900863H1.42394698C.6375051 67.5900863 0 68.23396404 0 69.0285152c0 .79455116.6375051 1.4386298 1.42394698 1.4386298h26.89114227c.78644188 0 1.42394698-.64407864 1.42394698-1.4386298 0-.79455116-.6375051-1.4384289-1.42394698-1.4384289z"/>
      <path fill="rgb(71,47,146)" fill-rule="evenodd" d="M76.70124905 31.02225047c4.2951061 0 7.77712475-3.51832476 7.77712475-7.8579201 0-4.33959533-3.4822175-7.85771919-7.77712475-7.85771919-4.29610033 0-7.77871553 3.51832476-7.77871553 7.8577192-.00019885 4.33959533 3.48241635 7.85792009 7.77871553 7.85792009z"/>
      <path fill="rgb(71,47,146)" fill-rule="evenodd" d="M89.49450094 28.75953752c-4.4659161 6.32004674-10.44605595 7.05191776-16.88115889 3.19226749-.43806105-.26237265-2.38159656-1.34420779-2.81190256-1.60256248-10.35219993-6.2089502-20.69227016-3.77406777-27.62667918 6.03698161-2.94672117 4.17285009 3.8685782 8.12812776 6.78229068 4.00389496 3.58283433-5.06905557 8.1386295-6.53581107 13.12115143-4.93023513-2.55121348 4.47399602-4.78168594 8.92087083-7.92904424 15.2387077-3.1481537 6.31783686-10.09886821 11.36318648-16.77755934 7.41715011-4.81906927-2.84571862-9.16488148 4.14874234-4.36032808 6.98562146 9.11795347 5.38386257 19.80898955 2.07788688 25.266757-4.92059204.18930283.10225703.38934341.19446916.60887106.27201575 4.45855874 1.56941432 10.3030846 5.74768865 12.08396285 7.228507 1.7802817 1.48081835 4.83915286 9.02453414 6.65562482 12.81487464 2.20362804 4.5991554 9.32018138 1.24938398 7.10840059-3.36925852-2.05906591-4.30042025-5.51523439-12.88338083-8.21101-15.05488613-2.16246662-1.74158381-6.36073398-4.98287038-9.92149624-6.82168877 2.40903752-4.7142699 4.91729994-9.37771263 7.55779595-13.96059531 8.41681717 2.60544474 16.41704882-.46367233 22.1148252-8.52731187 2.94910735-4.17224739-3.86460124-8.12752506-6.78050105-4.00289047z"/>
    </g>
  </g>
</svg>
